<?xml version="1.0" encoding="UTF-8"?>
<svg xmlns="http://www.w3.org/2000/svg" width="683" height="494.3" xmlns:xlink="http://www.w3.org/1999/xlink" viewBox="0 0 683 494.3">
  <defs>
    <style>
      .cls-1 {
        fill: #1a2f56;
      }

      .cls-2 {
        fill: #a2311a;
      }

      .cls-3 {
        fill: none;
        stroke: #bbb;
        stroke-miterlimit: 10;
        stroke-width: 2.5px;
      }

      .cls-4 {
        fill: #b3b3b3;
      }
    </style>
  </defs>
  <g id="logo_blue">
    <g id="logo">
      <g id="mountain_grey">
        <path class="cls-3" d="M191.01,195.39s6.84-3.9,11.94-17.34l20.91-8.48s22.94-40.91,34.17-51.9l12.93-2.19s3.15-6.9,15.62-14.35c0,0,7.07-4.35,10.84-9.19l2.1-.44,18.34,7.17,11.82-4.65,28.19,7.76,9.82,3.58,63.15,18.9,28.89,8.86,13.71-14.52s2.67-2.29,8.08-.37l73.99,25.89,2.51-.94s5.52-3.32,9.07-1.41l7.31,2.65"/>
        <path class="cls-4" d="M479.97,143.67s4.37-1.72,14.01,1.12c0,0,20.12,7.53,27.6,5.01l-11.1-9.11,21.9,7.41,23.64,16.52s-2.75,6.68-10.99,13.2l-9.81,9.21,8.48-1.98s-3.71,9.07,6.25,12.51l-8.35,22.04-21.45,50.1-7.4,6.54,5.66-26.82,2.88-15.1s4.43,2.1,5.71-1.71c.06-.19,.12-.39,.16-.6,.99-4.62-2.07-16.27-2.07-16.27,0,0,6.74,10.41,8.43,10.46s3.23-3.2,2.22-6.11l-.74-4.8s4.59,6.02,4.8,3.45l2.5-7.03s-.7-3.28-2.12-3.83l-8.85-5.31s-3.59-.85-5.72,2.82c-.09,.16-.18,.33-.27,.51-2.08,4.25-1.39,7.95-5.53,9.05l-14.14-11.82s7.44-1.25,8.08-6.6c0,0,.13-4.23-4.81-7.22l-10.34-6.12,18.72,7.52s4.44,2.72,9.05-3.82l14.31-20.75-30.62-9.97s-3.79-.54-2.3,3.06l4.76,8.91s-22.61-22.41-32.57-24.46Z"/>
        <path class="cls-4" d="M473.9,140.18s-3.83,10.08-11.71,13.13c0,0-10.65,5-10.3,12.71,0,0,11.75-3.65,15.28-.24l-.57-3.32,6.06,1.12s-2.76-6.43-1.32-10.49c1.44-4.06,2.56-12.91,2.56-12.91Z"/>
        <path class="cls-4" d="M386.23,129.4l-15,.72s-5.24-.25-7.4,5.14c0,0-1.88,2.1-4.02,.09,0,0-19.23-12.96-23.71-13.01,0,0-2.89-.49-3.05-3.37,0,0-.61-4.7,6.35-2.73,0,0,3.07,.15,20.3,10.77l-2.66-10.14s.27-.64,3.51-.4c0,0,26.85,11.84,27.79,12.49l-2.1,.44Z"/>
        <path class="cls-4" d="M407.14,139.25s10.94-1.69,18.27,2.91c0,0-2.76,8.83-12.11,14.88,0,0,4.45-15.94-6.16-17.79Z"/>
        <path class="cls-4" d="M337.59,139.68l14.64,5.53s1.83-.8,2.51-1.01,1.93-.39,5.36,1.75l8.99,5.35,7.06,4.13s3.71-1.29,10.58,.23c0,0,10.38,4.53,18.87,3.66,0,0-3.47,6.44,9.94,12.1,0,0,1.12,3.76,19.81-14.67l2.67-2.29,15.36-2.17s-12.65,7.5-14.61,10.88c0,0-4.38,6.52-13.28,9.74,0,0-3.16,.01-6.66,3.85,0,0-3.35,4.35-6.85,4.47,0,0-1.72-2.65-8.2,4.31,0,0-9.83,11.31-11.48,17.02,0,0-10.42-2.47-8.29,3.41l-11.15,1.29s-1.74-.22-3.31-2.36l-15.73-20.24-1.78,.9s6.98,23.97,9.93,26.99c0,0,1.72,4.51,1.57,5.86l-.46,2.19,8.15-.76s41.54-.51,48.61-8.58c0,0,4.81-9.44-1.72-10.1l-9.43,3.94s11.92-18.64,20.91-19.09c0,0-4.26,2.57-2.42,8.72l3.82,7.79s5.21-2.49,10.94-5.13c0,0-5.69,7.1-5.25,9.2,0,0-2.77,5.67-5.32,7.73-2.55,2.06-58.94,7.01-58.94,7.01,0,0-5.6-1.3-22.12,16.29-16.51,17.59-23.13,23.48-23.13,23.48l-12.18,1.59s-1.62-38.41-4.68-52.38c0,0-.69-6.68-2.25-9.38-1.55-2.7-3.6-22-3.6-22,0,0-5.99-26.87-6.52-34.9l-1.11-18.65,.18-13.08s2.75-3.24,4.78,2.29c0,0,3.69,11.74,1.74,14.55,0,0,7.44,25.51,8.13,37.77l11.55,47.35,4.81,19.22s2.13,4.02,6.05-.32c0,0,1.16-2.95,2.75-3.24,0,0,4.77-.87,2.28-9.8,0,0,2.36-17.64-7.37-45.81l-16.51-42.15s6.1-.15,10.99,7.51c4.89,7.66,9.21,12.13,11.41,19.48,0,0,5.59-1.86,7.04,.5l18,19.74,3.59-1.07,3.07,8.39s.36,3.06,5.93-.1c0,0,4.61-3.24,8.9-3.22,0,0,5.5,.96,.04-4.85l-46.59-38.9Z"/>
        <path class="cls-4" d="M292.07,117.91s-16.89,34.08-12.69,51.39c0,0,5.49-10.57,8.03-13.29,0,0,3.17-5.27,1.2-9.99,0,0-1.71-3.4-.24-5.93l3.7-22.18Z"/>
        <path class="cls-4" d="M292.36,195.43l5.56,35.88s-5.56,12.69-5.9,12.93-5.62,14.8-5.62,14.8l5.97-63.62Z"/>
        <path class="cls-4" d="M280.67,174.08s-4.09,34.86-7.23,44.45c-3.13,9.59-14.01,54.44-14.01,54.44,0,0,.66-58.96,14.02-77.75,0,0,3.64-5.56,7.22-21.14Z"/>
        <path class="cls-4" d="M253.8,167.31s-1-8.49,5.79-16.11c0,0,1.73-1.07,2.42,.3l-1.08,4.18-1.91,8.25,2.42,.48,1.9-.19,.96,1.02s-6.39,14.1-5.41,20.04-.33,8.85-.33,8.85c0,0-12.76,21.12-15.46,27.65s-6.63,23.89-6.63,23.89l3.97-33.24,12.69-39.11s2.86-3.51,.67-6.02Z"/>
        <path class="cls-4" d="M247.51,156.54s-4.03,.83-11.12,24.73c0,0,12.57-4.32,11.12-24.73Z"/>
        <polygon class="cls-4" points="201.38 202.52 221.83 188.74 210.21 211.05 201.04 209.32 201.38 202.52"/>
      </g>
      <g id="Gas_X_blue">
        <path class="cls-1" d="M387.76,187.74l-33.63,15.18c-.19,14.08-1.39,25.69-2.57,38.13-1.18,12.44-3.17,24.99-5.98,37.65-2.9,2.73-4.99,6.35-6.26,10.87-1.27,4.52-1.14,9.34,.39,14.46,.23,.76,.49,1.51,.78,2.25-.04,.11-.08,.23-.12,.35-1.98,4.99-5.14,8.12-9.48,9.42-6.36,1.9-10.54-.48-12.53-7.15-.79-2.63-1.22-5.21-1.29-7.72l-6.68-83.05-33.46,9.7,.87,12.35-.49-1.63c-1.07-3.57-3.48-5.97-7.23-7.22-3.75-1.24-8.81-.92-15.17,.99-12.56,3.76-22.07,11.37-28.52,22.85-6.45,11.48-10.08,24.22-10.88,38.23-.24,4.22-.26,8.31-.12,12.31l-11.71,20.62s-15.44,21.83-28.76,29.91c-13.32,8.08-25.04,8.33-28.26,7.46-3.22-.86-11.43,.14-18.72-24.24,0,0-9.09-27.12,1.92-58.27l12.1-5.58s2.38,25.52,27.44,24.91c0,0,26.11,.72,41.9-24.33,0,0,15.64-23.36,5.4-48.82,0,0-11.52-35.24-47.96-26.64,0,0-32.6,5.01-59.16,42.27l-17.33,29.77s-4.99,2.96-10.67-1.86c-.32-.27-.64-.57-.97-.89-6.07-6.05-1.79-12.58-1.79-12.58,0,0,3.84-7.87,12.65-6.9,0,0-9.29-11.48-32.83-2.47,0,0-15.08,8.77-9.41,24.45,0,0,5.4,14.78,20.71,17.74,0,0,7.61,1.33,14.44,2.24,0,0-9.99,36.76-4.57,60.38,0,0,4.35,41.97,41.98,49.41,0,0,27.95,4.1,59.63-15.33,9.71-5.36,26.75-23.61,30.73-36.6l-3.17,23.78s15.25-3.46,16.36-22.8c.1-1.78,.13-3.67,.1-5.63,3.15,5.29,6.92,9.22,11.34,11.68,7.7,4.29,15.97,5.11,24.82,2.47,7.6-2.27,13.56-6.21,17.88-11.81,4.32-5.6,7.78-12.25,10.38-19.96,2.86,6.75,6.82,11.36,11.86,13.82,5.04,2.46,10.82,2.72,17.34,.77,8.53-2.55,16.13-8.07,22.8-16.57,2.07-2.64,3.85-5.76,5.35-9.36,.17,.17,.32,.35,.49,.52,3.85,3.83,8.76,6.42,14.74,7.76,5.98,1.34,12.69,.9,20.13-1.33,7.29-2.18,14.07-5.64,20.34-10.39,6.27-4.74,10.9-10.86,13.9-18.35,3-7.48,3.09-15.96,.26-25.42-1.25-4.19-3.66-10.82-7.21-19.89-8.77-22.55-15.4-42.23-22.11-61.86Zm-208.16,28.4s25.33,.3,20.4,34.23c0,0-7.79,29.87-30.65,20.31,0,0-12.54-9.04-1.39-28.76,0,0-28.9,21.75-38.29,23.25,0,0,18.22-48.72,49.93-49.02Zm103.57,90.34c.51,6.78-.6,12.56-3.31,17.34-2.71,4.78-6.01,7.75-9.88,8.91-3.26,.97-6.34,.71-9.23-.79-2.9-1.5-5.51-6.12-7.83-13.88-2.32-7.75-3.6-17.13-3.85-28.12-.24-10.99,1.03-20.84,3.84-29.53,2.81-8.7,7.31-13.97,13.52-15.83,3.26-.97,5.95-.72,8.08,.75,2.13,1.48,3.5,3.22,4.1,5.24l4.55,55.92Zm99.36-8.41c-2.86,4.57-7.16,7.72-12.89,9.43-4.97,1.48-8.96,1.25-12-.72-2.36-1.53-4.3-4.16-5.83-7.87,.11-.76,.2-1.53,.3-2.31,1.45,.69,3.33,.7,5.66,0,2.94-.88,5.04-2.77,6.28-5.68,1.24-2.91,1.8-4.85,.92-7.8-1.07-3.57-2.78-5.14-6.9-5.93,3.74-19.7,4.38-37.83,4.44-51.2,2.27,5.91,6.83,17.47,13.66,34.69,3.43,8.1,5.85,14.47,7.24,19.13,2.27,7.6,1.98,13.69-.88,18.26Z"/>
        <polygon class="cls-1" points="448.53 250.2 495.29 236.22 493.75 216.66 447.22 230.56 448.53 250.2"/>
        <path class="cls-1" d="M592.76,72.59l-14.35,3.99-15,55.84-22.19-45.48c-4.13,.9-9.56,1.74-11.73,2.39-12.72,3.8-24.57,10.51-35.55,20.13-10.98,9.62-19.14,20.34-24.48,32.15-5.34,11.82-6.52,22.69-3.56,32.62,2.41,8.07,6.19,13.23,11.35,15.49,5.15,2.26,12.58,2.65,20.95,.15-.09-.31-1.68-1.94-3.44-3.87-1.76-1.92-3.49-5.76-5.21-11.49-3.8-12.72-3.99-24.36-.56-34.93,3.43-10.57,10.02-19.6,19.78-27.08l41.33,80.07-17.11,84.36L111.3,421.42l434.65-136.57,14.37-78,33.29,64.16,39.78-12.29-59.81-107.53,19.18-78.58Z"/>
      </g>
      <g id="beer">
        <g>
          <path class="cls-2" d="M234.73,441.19l-5.32-29.76,8.74-3.16c3.25-1.17,5.92-1.39,8.03-.68,2.1,.71,3.51,2.29,4.22,4.71,.85,2.9-.03,5.56-2.64,7.99,1.26-.02,2.38,.38,3.38,1.22,1,.83,1.72,1.98,2.15,3.45,.78,2.71,.49,5.14-.86,7.29-1.36,2.16-3.67,3.83-6.94,5.02l-10.75,3.91Zm2.54-19.34l3.84-1.35c1.41-.54,2.46-1.3,3.13-2.27,.67-.97,.89-2.06,.65-3.26-.5-2.37-2.1-3.08-4.79-2.11l-4.16,1.49,1.34,7.5Zm.79,4.33l1.42,8.04,4.45-1.6c1.38-.5,2.42-1.27,3.11-2.29,.69-1.03,.91-2.15,.66-3.39-.24-1.22-.72-2.06-1.45-2.53-.73-.47-1.69-.52-2.87-.14l-5.31,1.91Z"/>
          <path class="cls-2" d="M270.97,428.15c-.35-.47-.65-1.07-.88-1.82-1.02,2.12-2.52,3.51-4.52,4.16-1.84,.62-3.56,.56-5.17-.18-1.61-.74-2.68-1.98-3.21-3.71-.71-2.31-.38-4.39,1.02-6.25,1.39-1.86,3.62-3.33,6.68-4.41l2.56-.86-.17-1.35c-.07-.45-.2-.86-.37-1.24-.28-.58-.67-.97-1.19-1.17-.51-.2-1.09-.2-1.74,.02-.86,.28-1.5,.74-1.94,1.39-.44,.65-.59,1.43-.46,2.32l-5.45,1.95c-.61-2.03-.27-3.97,1.03-5.82,1.3-1.86,3.24-3.22,5.81-4.1,2.38-.78,4.49-.73,6.3,.15,1.82,.88,2.99,2.43,3.53,4.64l1.93,10.56,.34,1.27c.3,.92,.68,1.66,1.15,2.2l.11,.37-5.34,1.89Zm-5.54-2.36c1.59-.5,2.72-1.67,3.39-3.5l-.6-3.84-1.9,.65c-1.99,.76-3.22,1.88-3.69,3.37-.17,.54-.19,1.13-.05,1.77,.14,.73,.48,1.23,1.02,1.5s1.15,.29,1.83,.06Z"/>
          <path class="cls-2" d="M280.99,401.2l.39,2.64c1.01-2.52,2.71-4.17,5.12-4.94,1.99-.64,3.69-.42,5.12,.67,1.42,1.08,2.44,2.91,3.03,5.49l2.37,14.07-5.46,1.87-2.35-14.14c-.11-.53-.25-.99-.43-1.39-.62-1.26-1.68-1.65-3.17-1.18-1.45,.44-2.5,1.55-3.17,3.32l2.47,15.68-5.46,1.88-3.56-22.18,5.1-1.77Z"/>
          <path class="cls-2" d="M304.51,392.78c2.19-.67,4.15-.35,5.87,.98l.14-2.55,4.9-1.61,4.66,30.75-5.51,1.84-1.35-10.57c-.95,2.03-2.4,3.34-4.36,3.94-1.31,.42-2.57,.46-3.78,.12-1.21-.34-2.29-1.06-3.26-2.16-.96-1.09-1.72-2.4-2.29-3.91-.31-.8-.56-1.6-.74-2.41l-.17-.89c-.42-2.28-.45-4.38-.11-6.3,.34-1.93,1.03-3.49,2.06-4.69,1.03-1.2,2.34-2.04,3.93-2.53Zm.54,15.11c.9,2.26,2.21,3.13,3.93,2.6,1.56-.46,2.65-1.58,3.28-3.36l-1.33-9.28c-.92-1.09-2.16-1.4-3.7-.95-1.38,.42-2.34,1.34-2.85,2.76-.52,1.42-.57,3.17-.16,5.27,.32,1.38,.6,2.36,.84,2.96Z"/>
          <path class="cls-2" d="M335.48,403.95c-.99,2.26-2.64,3.74-4.97,4.45-2.03,.63-3.8,.4-5.3-.69-1.5-1.09-2.51-2.84-3.04-5.25l-2.14-14.36,5.49-1.78,2.13,14.45c.09,.45,.21,.85,.37,1.21,.55,1.26,1.49,1.69,2.81,1.31,1.72-.5,2.91-1.61,3.58-3.34l-2.22-15.79,5.53-1.79,3.17,22.24-5.12,1.66-.3-2.31Z"/>
          <path class="cls-2" d="M355.08,400.52c-1.85,.57-3.63,.63-5.33,.19-1.71-.44-3.15-1.33-4.35-2.66-1.19-1.33-2.01-2.96-2.44-4.88l-.19-.8c-.45-2.12-.45-4.19,.01-6.22,.46-2.03,1.33-3.76,2.61-5.19,1.28-1.43,2.89-2.42,4.81-2.96,2.74-.8,5.11-.45,7.12,1.05,2.01,1.51,3.32,3.81,3.92,6.9l.45,2.5-12.94,4.08c.38,1.38,1.05,2.37,2.03,2.96,.97,.59,2.08,.71,3.33,.35,2.02-.58,3.53-1.91,4.53-4l3.5,2.33c-.42,1.45-1.27,2.74-2.55,3.88-1.29,1.14-2.79,1.97-4.52,2.48Zm-3.71-17.9c-1.02,.29-1.82,.9-2.4,1.81-.58,.91-.92,2.29-1.03,4.12l7.57-2.39-.04-.54c-.09-.54-.23-1.04-.45-1.49-.37-.71-.87-1.2-1.51-1.46-.64-.26-1.35-.28-2.14-.04Z"/>
          <path class="cls-2" d="M369.11,366.86l.68,5.48,3.52-1.08,.55,4.37-3.52,1.08,1.46,11.15c.13,.69,.33,1.18,.63,1.48,.29,.3,.79,.35,1.5,.16,.21-.05,.76-.26,1.65-.62l.94,4.44c-.88,.63-1.89,1.1-3.03,1.42-1.82,.53-3.34,.38-4.57-.46-1.23-.83-2.05-2.22-2.48-4.16l-1.62-11.72-2.99,.92-.55-4.37,2.99-.92-.7-5.48,5.53-1.7Z"/>
          <path class="cls-2" d="M391.35,391.6l-4.35,1.3,6.34-35.63,4.37-1.3-6.36,35.64Z"/>
          <path class="cls-2" d="M414.09,382.2l-3.19-30.07,8.94-2.53c3.32-.93,6.01-.97,8.05-.11,2.05,.86,3.34,2.53,3.87,5,.64,2.95-.43,5.55-3.2,7.79,1.25,.07,2.35,.55,3.29,1.46,.94,.9,1.57,2.1,1.9,3.6,.59,2.75,.13,5.16-1.38,7.21-1.51,2.05-3.93,3.56-7.28,4.51l-11,3.14Zm3.91-19.11l3.93-1.08c1.45-.44,2.54-1.12,3.28-2.04,.74-.92,1.03-1.99,.88-3.21-.33-2.4-1.88-3.22-4.63-2.44l-4.26,1.19,.8,7.58Zm.48,4.37l.85,8.12,4.55-1.28c1.42-.4,2.5-1.09,3.26-2.07,.76-.97,1.06-2.08,.9-3.33-.15-1.23-.58-2.11-1.27-2.63s-1.65-.63-2.85-.35l-5.44,1.53Z"/>
          <path class="cls-2" d="M454.71,357.39l-11.01,3.03,.78,8.06,12.94-3.56,.48,4.98-18.72,5.16-2.92-30.09,18.68-5.14,.47,5.03-12.88,3.55,.68,7.17,11.04-3.04,.45,4.86Z"/>
          <path class="cls-2" d="M477.04,351.41l-11.03,2.94,.71,8.07,12.97-3.45,.44,4.99-18.76,5-2.67-30.12,18.72-4.99,.43,5.03-12.91,3.44,.62,7.18,11.07-2.95,.41,4.87Z"/>
          <path class="cls-2" d="M493.22,349.3l-4.72,1.21,.87,11.04-5.81,1.49-2.39-30.14,9.56-2.43c3.2-.82,5.85-.7,7.96,.37,2.11,1.06,3.41,2.96,3.9,5.69,.74,4.04-.67,7.33-4.22,9.89l7.07,10.67,.08,.32-6.18,1.59-6.12-9.69Zm-5.12-3.82l4.33-1.07c1.53-.42,2.68-1.16,3.48-2.21,.79-1.06,1.11-2.29,.96-3.72-.14-1.33-.61-2.28-1.39-2.85-.78-.57-1.83-.72-3.13-.44l-4.96,1.25,.72,9.05Z"/>
        </g>
      </g>
    </g>
  </g>
  <g id="label_2">
    <image transform="translate(517.28 -168.27) scale(1.56 1.5)" xlink:href="labels_before/coors_label copy.png"/>
  </g>
</svg>